<?xml version="1.0" encoding="UTF-8"?>
<!-- Generator: visioncortex VTracer 0.6.2 -->
<svg version="1.1" xmlns="http://www.w3.org/2000/svg" width="1280" height="1280">
<path d="M0 0 C0.98628361 -0.00218016 0.98628361 -0.00218016 1.99249214 -0.00440437 C4.22328051 -0.00808993 6.45400164 -0.00456619 8.68478966 -0.0011425 C10.28933637 -0.00229333 11.89388281 -0.00388059 13.4984287 -0.00586975 C17.92927592 -0.01006867 22.36010178 -0.00796983 26.79094911 -0.00488353 C31.56139097 -0.00263181 36.33182901 -0.00610797 41.10227013 -0.00886345 C50.45782093 -0.01332321 59.81336374 -0.01234359 69.16891487 -0.00945081 C76.77228427 -0.00719677 84.37565143 -0.00688426 91.97902107 -0.00797462 C93.59937257 -0.00820447 93.59937257 -0.00820447 95.25245845 -0.00843897 C97.4466868 -0.00875868 99.64091514 -0.00908289 101.83514349 -0.00941156 C122.44000087 -0.01226716 143.04485381 -0.0089785 163.64971046 -0.00361119 C181.33534578 0.00085312 199.02097453 0.00008414 216.70660973 -0.00452995 C237.22605064 -0.00988084 257.74548766 -0.01198846 278.26492918 -0.00891769 C280.45313477 -0.00859913 282.64134037 -0.00828476 284.82954597 -0.00797462 C285.90626901 -0.00782035 286.98299204 -0.00766607 288.09234304 -0.00750712 C295.68482157 -0.00664323 303.27729763 -0.00810218 310.86977577 -0.01045418 C320.12550465 -0.01325824 329.38122505 -0.01250122 338.63695295 -0.00717343 C343.36075341 -0.00454406 348.08453972 -0.00351842 352.80834007 -0.00682259 C357.1324979 -0.00980144 361.45662847 -0.00816612 365.78078382 -0.00284503 C367.34547081 -0.00172761 368.91016009 -0.00229712 370.4748456 -0.00472082 C372.60206804 -0.00776319 374.72919721 -0.00464063 376.85641479 0 C378.03794211 0.00016235 379.21946943 0.0003247 380.4368006 0.00049198 C385.56397988 0.19126103 390.3674667 0.5378241 394.93073082 3.00084114 C395.59846519 3.35533333 396.26619957 3.70982552 396.95416832 4.07505989 C398.50650193 4.95602559 400.03442663 5.87981357 401.55573082 6.81334114 C403.66759555 8.19850579 403.66759555 8.19850579 405.74323082 8.55552864 C412.94048103 10.54567737 418.90067819 19.23276172 422.80573082 25.12584114 C422.80573082 26.11584114 422.80573082 27.10584114 422.80573082 28.12584114 C423.46573082 28.12584114 424.12573082 28.12584114 424.80573082 28.12584114 C424.99909019 28.72912239 425.19244957 29.33240364 425.39166832 29.95396614 C425.78225426 31.15279427 425.78225426 31.15279427 426.18073082 32.37584114 C426.56358238 33.55920052 426.56358238 33.55920052 426.95416832 34.76646614 C427.70430097 37.08315232 427.70430097 37.08315232 428.84287417 38.85155034 C430.1513898 41.94229605 430.05911071 44.51906715 430.06299973 47.87386894 C430.0665058 48.55481377 430.07001187 49.2357586 430.07362419 49.93733811 C430.08296281 52.22980632 430.07800861 54.52202186 430.07315636 56.81450081 C430.07689139 58.47042335 430.08149232 60.12634412 430.086887 61.78226209 C430.09915077 66.34123258 430.09885257 70.90012988 430.09649825 75.45911312 C430.09609093 80.37268207 430.10712116 85.28622728 430.11661339 90.19978523 C430.13324324 99.8299862 430.13872384 109.4601627 430.13983814 119.09037682 C430.14078775 126.91725766 430.14489366 134.7441304 430.1512394 142.57100868 C430.16885779 164.75254131 430.17807742 186.93405456 430.17657845 209.11559424 C430.17645858 210.91020747 430.17645858 210.91020747 430.17633629 212.74107552 C430.17625453 213.93894216 430.17617277 215.13680881 430.17608853 216.37097445 C430.17527562 235.78432792 430.19441288 255.1976038 430.22261302 274.61093482 C430.25132778 294.53548427 430.26515407 314.45999587 430.26342547 334.38456655 C430.26276104 345.57424459 430.26827619 356.76384132 430.28978157 367.95350075 C430.30797491 377.48108294 430.31235595 387.00854696 430.29876272 396.53613898 C430.29222354 401.39788032 430.29215011 406.25939484 430.30946922 411.12111473 C430.32516318 415.57239682 430.32237401 420.02327155 430.30490096 424.47454348 C430.30182292 426.08424785 430.30549366 427.69398234 430.31662111 429.30365118 C430.36943092 437.48534063 430.34849105 444.06566685 425.80573082 451.12584114 C425.45510582 452.05396614 425.10448082 452.98209114 424.74323082 453.93834114 C423.73130157 456.29950938 422.63939072 457.36552764 420.80573082 459.12584114 C420.09416832 460.36334114 420.09416832 460.36334114 419.36823082 461.62584114 C417.76776159 464.18659191 416.30816656 465.48631428 413.80573082 467.12584114 C413.80573082 466.46584114 413.80573082 465.80584114 413.80573082 465.12584114 C412.81573082 465.12584114 411.82573082 465.12584114 410.80573082 465.12584114 C410.80573082 466.11584114 410.80573082 467.10584114 410.80573082 468.12584114 C411.46573082 468.45584114 412.12573082 468.78584114 412.80573082 469.12584114 C408.57441515 473.8422758 402.02129513 476.32383284 395.80573082 477.12584114 C395.80573082 477.78584114 395.80573082 478.44584114 395.80573082 479.12584114 C395.09545738 479.25861458 394.38518394 479.39138802 393.65338707 479.52818489 C392.73428551 479.70478645 391.81518394 479.88138802 390.86823082 480.06334114 C389.95170738 480.23736458 389.03518394 480.41138802 388.09088707 480.59068489 C385.85283238 480.90299103 385.85283238 480.90299103 384.80573082 482.12584114 C382.37558923 482.2532754 379.98642847 482.31105235 377.55573082 482.31334114 C376.88670738 482.32558723 376.21768394 482.33783333 375.52838707 482.35045052 C371.43938705 482.36250061 368.5085921 481.78970855 364.80573082 480.12584114 C362.81146082 479.64318537 360.81097618 479.185652 358.80573082 478.75084114 C354.1835155 477.63064697 351.27474255 476.4897313 347.80573082 473.12584114 C345.28378464 471.54962478 342.74067777 470.09104532 340.11823082 468.68834114 C337.55342737 466.95536584 337.05661546 465.87778735 335.80573082 463.12584114 C335.12510582 462.48646614 334.44448082 461.84709114 333.74323082 461.18834114 C331.49620228 458.79634301 331.31955443 457.29442008 330.80573082 454.12584114 C330.14573082 453.79584114 329.48573082 453.46584114 328.80573082 453.12584114 C327.69139917 450.80027944 326.72317814 448.5289702 325.80573082 446.12584114 C325.54344018 445.46859238 325.28114953 444.81134361 325.01091069 444.13417822 C322.82194 438.21198582 322.37444566 432.94519332 322.4070034 426.6664753 C322.40035658 425.65014804 322.39370975 424.63382078 322.3868615 423.58669573 C322.36829617 420.20112181 322.37083249 416.81590332 322.37335777 413.4302845 C322.3643367 410.99548534 322.35400863 408.56069073 322.34247398 406.12590218 C322.32061951 400.89422014 322.30781255 395.66260008 322.30334473 390.43087769 C322.29686931 382.86682047 322.27390757 375.30288289 322.24700143 367.73887403 C322.20378572 355.46496652 322.17378924 343.19106406 322.15216637 330.91710091 C322.13114101 318.99845587 322.10385236 307.07985213 322.06818199 295.16124153 C322.06598317 294.42581814 322.06378434 293.69039474 322.06151889 292.93268578 C322.05044884 289.24305558 322.03925611 285.55342576 322.02800238 281.86379611 C321.93489118 251.28451287 321.86348028 220.70521281 321.80573082 190.12584114 C321.14573082 189.79584114 320.48573082 189.46584114 319.80573082 189.12584114 C319.47573082 189.78584114 319.14573082 190.44584114 318.80573082 191.12584114 C318.14573082 191.12584114 317.48573082 191.12584114 316.80573082 191.12584114 C316.80573082 191.78584114 316.80573082 192.44584114 316.80573082 193.12584114 C315.43073082 194.75084114 315.43073082 194.75084114 313.80573082 196.12584114 C313.14573082 196.12584114 312.48573082 196.12584114 311.80573082 196.12584114 C311.80573082 196.78584114 311.80573082 197.44584114 311.80573082 198.12584114 C310.43073082 199.75084114 310.43073082 199.75084114 308.80573082 201.12584114 C308.14573082 201.12584114 307.48573082 201.12584114 306.80573082 201.12584114 C306.80573082 201.78584114 306.80573082 202.44584114 306.80573082 203.12584114 C305.61823082 204.81334114 305.61823082 204.81334114 303.80573082 206.12584114 C301.11823082 205.81334114 301.11823082 205.81334114 298.80573082 205.12584114 C298.99135582 205.74459114 299.17698082 206.36334114 299.36823082 207.00084114 C299.80573082 209.12584114 299.80573082 209.12584114 298.80573082 211.12584114 C297.15573082 210.79584114 295.50573082 210.46584114 293.80573082 210.12584114 C293.99135582 210.74459114 294.17698082 211.36334114 294.36823082 212.00084114 C294.80573082 214.12584114 294.80573082 214.12584114 293.80573082 216.12584114 C293.14573082 216.12584114 292.48573082 216.12584114 291.80573082 216.12584114 C291.80573082 216.78584114 291.80573082 217.44584114 291.80573082 218.12584114 C290.43073082 219.75084114 290.43073082 219.75084114 288.80573082 221.12584114 C288.14573082 221.12584114 287.48573082 221.12584114 286.80573082 221.12584114 C286.80573082 221.78584114 286.80573082 222.44584114 286.80573082 223.12584114 C285.43073082 224.75084114 285.43073082 224.75084114 283.80573082 226.12584114 C283.14573082 226.12584114 282.48573082 226.12584114 281.80573082 226.12584114 C281.80573082 226.78584114 281.80573082 227.44584114 281.80573082 228.12584114 C280.43073082 229.75084114 280.43073082 229.75084114 278.80573082 231.12584114 C278.14573082 231.12584114 277.48573082 231.12584114 276.80573082 231.12584114 C276.80573082 231.78584114 276.80573082 232.44584114 276.80573082 233.12584114 C275.43073082 234.75084114 275.43073082 234.75084114 273.80573082 236.12584114 C273.14573082 236.12584114 272.48573082 236.12584114 271.80573082 236.12584114 C271.80573082 236.78584114 271.80573082 237.44584114 271.80573082 238.12584114 C270.43073082 239.75084114 270.43073082 239.75084114 268.80573082 241.12584114 C268.14573082 241.12584114 267.48573082 241.12584114 266.80573082 241.12584114 C266.80573082 241.78584114 266.80573082 242.44584114 266.80573082 243.12584114 C265.43073082 244.75084114 265.43073082 244.75084114 263.80573082 246.12584114 C263.14573082 246.12584114 262.48573082 246.12584114 261.80573082 246.12584114 C261.80573082 246.78584114 261.80573082 247.44584114 261.80573082 248.12584114 C260.43073082 249.75084114 260.43073082 249.75084114 258.80573082 251.12584114 C258.14573082 251.12584114 257.48573082 251.12584114 256.80573082 251.12584114 C256.80573082 251.78584114 256.80573082 252.44584114 256.80573082 253.12584114 C255.43073082 254.75084114 255.43073082 254.75084114 253.80573082 256.12584114 C253.14573082 256.12584114 252.48573082 256.12584114 251.80573082 256.12584114 C251.80573082 256.78584114 251.80573082 257.44584114 251.80573082 258.12584114 C250.43073082 259.75084114 250.43073082 259.75084114 248.80573082 261.12584114 C248.14573082 261.12584114 247.48573082 261.12584114 246.80573082 261.12584114 C246.80573082 261.78584114 246.80573082 262.44584114 246.80573082 263.12584114 C245.43073082 264.75084114 245.43073082 264.75084114 243.80573082 266.12584114 C243.14573082 266.12584114 242.48573082 266.12584114 241.80573082 266.12584114 C241.80573082 266.78584114 241.80573082 267.44584114 241.80573082 268.12584114 C240.43073082 269.75084114 240.43073082 269.75084114 238.80573082 271.12584114 C238.14573082 271.12584114 237.48573082 271.12584114 236.80573082 271.12584114 C236.80573082 271.78584114 236.80573082 272.44584114 236.80573082 273.12584114 C235.43073082 274.75084114 235.43073082 274.75084114 233.80573082 276.12584114 C233.14573082 276.12584114 232.48573082 276.12584114 231.80573082 276.12584114 C231.80573082 276.78584114 231.80573082 277.44584114 231.80573082 278.12584114 C230.43073082 279.75084114 230.43073082 279.75084114 228.80573082 281.12584114 C228.14573082 281.12584114 227.48573082 281.12584114 226.80573082 281.12584114 C226.80573082 281.78584114 226.80573082 282.44584114 226.80573082 283.12584114 C225.43073082 284.75084114 225.43073082 284.75084114 223.80573082 286.12584114 C223.14573082 286.12584114 222.48573082 286.12584114 221.80573082 286.12584114 C221.80573082 286.78584114 221.80573082 287.44584114 221.80573082 288.12584114 C220.43073082 289.75084114 220.43073082 289.75084114 218.80573082 291.12584114 C218.14573082 291.12584114 217.48573082 291.12584114 216.80573082 291.12584114 C216.80573082 291.78584114 216.80573082 292.44584114 216.80573082 293.12584114 C215.43073082 294.75084114 215.43073082 294.75084114 213.80573082 296.12584114 C213.14573082 296.12584114 212.48573082 296.12584114 211.80573082 296.12584114 C211.80573082 296.78584114 211.80573082 297.44584114 211.80573082 298.12584114 C210.43073082 299.75084114 210.43073082 299.75084114 208.80573082 301.12584114 C208.14573082 301.12584114 207.48573082 301.12584114 206.80573082 301.12584114 C206.80573082 301.78584114 206.80573082 302.44584114 206.80573082 303.12584114 C205.43073082 304.75084114 205.43073082 304.75084114 203.80573082 306.12584114 C203.14573082 306.12584114 202.48573082 306.12584114 201.80573082 306.12584114 C201.80573082 306.78584114 201.80573082 307.44584114 201.80573082 308.12584114 C200.43073082 309.75084114 200.43073082 309.75084114 198.80573082 311.12584114 C198.14573082 311.12584114 197.48573082 311.12584114 196.80573082 311.12584114 C196.80573082 311.78584114 196.80573082 312.44584114 196.80573082 313.12584114 C195.43073082 314.75084114 195.43073082 314.75084114 193.80573082 316.12584114 C193.14573082 316.12584114 192.48573082 316.12584114 191.80573082 316.12584114 C191.80573082 316.78584114 191.80573082 317.44584114 191.80573082 318.12584114 C190.43073082 319.75084114 190.43073082 319.75084114 188.80573082 321.12584114 C188.14573082 321.12584114 187.48573082 321.12584114 186.80573082 321.12584114 C186.80573082 321.78584114 186.80573082 322.44584114 186.80573082 323.12584114 C185.43073082 324.75084114 185.43073082 324.75084114 183.80573082 326.12584114 C183.14573082 326.12584114 182.48573082 326.12584114 181.80573082 326.12584114 C181.80573082 326.78584114 181.80573082 327.44584114 181.80573082 328.12584114 C180.43073082 329.75084114 180.43073082 329.75084114 178.80573082 331.12584114 C178.14573082 331.12584114 177.48573082 331.12584114 176.80573082 331.12584114 C176.80573082 331.78584114 176.80573082 332.44584114 176.80573082 333.12584114 C175.43073082 334.75084114 175.43073082 334.75084114 173.80573082 336.12584114 C173.14573082 336.12584114 172.48573082 336.12584114 171.80573082 336.12584114 C171.80573082 336.78584114 171.80573082 337.44584114 171.80573082 338.12584114 C170.43073082 339.75084114 170.43073082 339.75084114 168.80573082 341.12584114 C168.14573082 341.12584114 167.48573082 341.12584114 166.80573082 341.12584114 C166.80573082 341.78584114 166.80573082 342.44584114 166.80573082 343.12584114 C165.43073082 344.75084114 165.43073082 344.75084114 163.80573082 346.12584114 C163.14573082 346.12584114 162.48573082 346.12584114 161.80573082 346.12584114 C161.80573082 346.78584114 161.80573082 347.44584114 161.80573082 348.12584114 C160.43073082 349.75084114 160.43073082 349.75084114 158.80573082 351.12584114 C158.14573082 351.12584114 157.48573082 351.12584114 156.80573082 351.12584114 C156.80573082 351.78584114 156.80573082 352.44584114 156.80573082 353.12584114 C155.43073082 354.75084114 155.43073082 354.75084114 153.80573082 356.12584114 C153.14573082 356.12584114 152.48573082 356.12584114 151.80573082 356.12584114 C151.80573082 356.78584114 151.80573082 357.44584114 151.80573082 358.12584114 C150.43073082 359.75084114 150.43073082 359.75084114 148.80573082 361.12584114 C148.14573082 361.12584114 147.48573082 361.12584114 146.80573082 361.12584114 C146.80573082 361.78584114 146.80573082 362.44584114 146.80573082 363.12584114 C145.43073082 364.75084114 145.43073082 364.75084114 143.80573082 366.12584114 C143.14573082 366.12584114 142.48573082 366.12584114 141.80573082 366.12584114 C141.80573082 366.78584114 141.80573082 367.44584114 141.80573082 368.12584114 C140.43073082 369.75084114 140.43073082 369.75084114 138.80573082 371.12584114 C138.14573082 371.12584114 137.48573082 371.12584114 136.80573082 371.12584114 C136.80573082 371.78584114 136.80573082 372.44584114 136.80573082 373.12584114 C135.43073082 374.75084114 135.43073082 374.75084114 133.80573082 376.12584114 C133.14573082 376.12584114 132.48573082 376.12584114 131.80573082 376.12584114 C131.80573082 376.78584114 131.80573082 377.44584114 131.80573082 378.12584114 C130.43073082 379.75084114 130.43073082 379.75084114 128.80573082 381.12584114 C128.14573082 381.12584114 127.48573082 381.12584114 126.80573082 381.12584114 C126.80573082 381.78584114 126.80573082 382.44584114 126.80573082 383.12584114 C125.43073082 384.75084114 125.43073082 384.75084114 123.80573082 386.12584114 C123.14573082 386.12584114 122.48573082 386.12584114 121.80573082 386.12584114 C121.80573082 386.78584114 121.80573082 387.44584114 121.80573082 388.12584114 C120.43073082 389.75084114 120.43073082 389.75084114 118.80573082 391.12584114 C118.14573082 391.12584114 117.48573082 391.12584114 116.80573082 391.12584114 C116.80573082 391.78584114 116.80573082 392.44584114 116.80573082 393.12584114 C115.43073082 394.75084114 115.43073082 394.75084114 113.80573082 396.12584114 C113.14573082 396.12584114 112.48573082 396.12584114 111.80573082 396.12584114 C111.80573082 396.78584114 111.80573082 397.44584114 111.80573082 398.12584114 C110.43073082 399.75084114 110.43073082 399.75084114 108.80573082 401.12584114 C108.14573082 401.12584114 107.48573082 401.12584114 106.80573082 401.12584114 C106.80573082 401.78584114 106.80573082 402.44584114 106.80573082 403.12584114 C105.43073082 404.75084114 105.43073082 404.75084114 103.80573082 406.12584114 C103.14573082 406.12584114 102.48573082 406.12584114 101.80573082 406.12584114 C101.80573082 406.78584114 101.80573082 407.44584114 101.80573082 408.12584114 C100.43073082 409.75084114 100.43073082 409.75084114 98.80573082 411.12584114 C98.14573082 411.12584114 97.48573082 411.12584114 96.80573082 411.12584114 C96.80573082 411.78584114 96.80573082 412.44584114 96.80573082 413.12584114 C95.43073082 414.75084114 95.43073082 414.75084114 93.80573082 416.12584114 C93.14573082 416.12584114 92.48573082 416.12584114 91.80573082 416.12584114 C91.80573082 416.78584114 91.80573082 417.44584114 91.80573082 418.12584114 C90.43073082 419.75084114 90.43073082 419.75084114 88.80573082 421.12584114 C88.14573082 421.12584114 87.48573082 421.12584114 86.80573082 421.12584114 C86.80573082 421.78584114 86.80573082 422.44584114 86.80573082 423.12584114 C85.43073082 424.75084114 85.43073082 424.75084114 83.80573082 426.12584114 C83.14573082 426.12584114 82.48573082 426.12584114 81.80573082 426.12584114 C81.80573082 426.78584114 81.80573082 427.44584114 81.80573082 428.12584114 C80.43073082 429.75084114 80.43073082 429.75084114 78.80573082 431.12584114 C78.14573082 431.12584114 77.48573082 431.12584114 76.80573082 431.12584114 C76.80573082 431.78584114 76.80573082 432.44584114 76.80573082 433.12584114 C75.43073082 434.75084114 75.43073082 434.75084114 73.80573082 436.12584114 C73.14573082 436.12584114 72.48573082 436.12584114 71.80573082 436.12584114 C71.80573082 436.78584114 71.80573082 437.44584114 71.80573082 438.12584114 C70.43073082 439.75084114 70.43073082 439.75084114 68.80573082 441.12584114 C68.14573082 441.12584114 67.48573082 441.12584114 66.80573082 441.12584114 C66.80573082 441.78584114 66.80573082 442.44584114 66.80573082 443.12584114 C65.43073082 444.75084114 65.43073082 444.75084114 63.80573082 446.12584114 C63.14573082 446.12584114 62.48573082 446.12584114 61.80573082 446.12584114 C61.80573082 446.78584114 61.80573082 447.44584114 61.80573082 448.12584114 C60.43073082 449.75084114 60.43073082 449.75084114 58.80573082 451.12584114 C58.14573082 451.12584114 57.48573082 451.12584114 56.80573082 451.12584114 C56.80573082 451.78584114 56.80573082 452.44584114 56.80573082 453.12584114 C55.43073082 454.75084114 55.43073082 454.75084114 53.80573082 456.12584114 C53.14573082 456.12584114 52.48573082 456.12584114 51.80573082 456.12584114 C51.80573082 456.78584114 51.80573082 457.44584114 51.80573082 458.12584114 C50.61823082 459.81334114 50.61823082 459.81334114 48.80573082 461.12584114 C46.11823082 460.81334114 46.11823082 460.81334114 43.80573082 460.12584114 C43.99135582 460.74459114 44.17698082 461.36334114 44.36823082 462.00084114 C44.80573082 464.12584114 44.80573082 464.12584114 43.80573082 466.12584114 C43.14573082 466.12584114 42.48573082 466.12584114 41.80573082 466.12584114 C41.80573082 466.78584114 41.80573082 467.44584114 41.80573082 468.12584114 C40.61823082 469.81334114 40.61823082 469.81334114 38.80573082 471.12584114 C36.11823082 470.81334114 36.11823082 470.81334114 33.80573082 470.12584114 C33.99135582 470.74459114 34.17698082 471.36334114 34.36823082 472.00084114 C34.80573082 474.12584114 34.80573082 474.12584114 33.80573082 476.12584114 C32.15573082 475.79584114 30.50573082 475.46584114 28.80573082 475.12584114 C28.99135582 475.74459114 29.17698082 476.36334114 29.36823082 477.00084114 C29.80573082 479.12584114 29.80573082 479.12584114 28.80573082 481.12584114 C27.15573082 480.79584114 25.50573082 480.46584114 23.80573082 480.12584114 C23.99135582 480.74459114 24.17698082 481.36334114 24.36823082 482.00084114 C24.80573082 484.12584114 24.80573082 484.12584114 23.80573082 486.12584114 C23.14573082 486.12584114 22.48573082 486.12584114 21.80573082 486.12584114 C21.80573082 486.78584114 21.80573082 487.44584114 21.80573082 488.12584114 C20.43073082 489.75084114 20.43073082 489.75084114 18.80573082 491.12584114 C18.14573082 491.12584114 17.48573082 491.12584114 16.80573082 491.12584114 C16.80573082 491.78584114 16.80573082 492.44584114 16.80573082 493.12584114 C15.43073082 494.75084114 15.43073082 494.75084114 13.80573082 496.12584114 C13.14573082 496.12584114 12.48573082 496.12584114 11.80573082 496.12584114 C11.80573082 496.78584114 11.80573082 497.44584114 11.80573082 498.12584114 C10.61823082 499.81334114 10.61823082 499.81334114 8.80573082 501.12584114 C6.11823082 500.81334114 6.11823082 500.81334114 3.80573082 500.12584114 C3.99135582 500.74459114 4.17698082 501.36334114 4.36823082 502.00084114 C4.80573082 504.12584114 4.80573082 504.12584114 3.80573082 506.12584114 C3.14573082 506.12584114 2.48573082 506.12584114 1.80573082 506.12584114 C1.80573082 506.78584114 1.80573082 507.44584114 1.80573082 508.12584114 C0.43073082 509.75084114 0.43073082 509.75084114 -1.19426918 511.12584114 C-1.85426918 511.12584114 -2.51426918 511.12584114 -3.19426918 511.12584114 C-3.19426918 511.78584114 -3.19426918 512.44584114 -3.19426918 513.12584114 C-4.56926918 514.75084114 -4.56926918 514.75084114 -6.19426918 516.12584114 C-6.85426918 516.12584114 -7.51426918 516.12584114 -8.19426918 516.12584114 C-8.19426918 516.78584114 -8.19426918 517.44584114 -8.19426918 518.12584114 C-9.56926918 519.75084114 -9.56926918 519.75084114 -11.19426918 521.12584114 C-11.85426918 521.12584114 -12.51426918 521.12584114 -13.19426918 521.12584114 C-13.19426918 521.78584114 -13.19426918 522.44584114 -13.19426918 523.12584114 C-14.56926918 524.75084114 -14.56926918 524.75084114 -16.19426918 526.12584114 C-16.85426918 526.12584114 -17.51426918 526.12584114 -18.19426918 526.12584114 C-18.19426918 526.78584114 -18.19426918 527.44584114 -18.19426918 528.12584114 C-19.56926918 529.75084114 -19.56926918 529.75084114 -21.19426918 531.12584114 C-21.85426918 531.12584114 -22.51426918 531.12584114 -23.19426918 531.12584114 C-23.19426918 531.78584114 -23.19426918 532.44584114 -23.19426918 533.12584114 C-24.56926918 534.75084114 -24.56926918 534.75084114 -26.19426918 536.12584114 C-26.85426918 536.12584114 -27.51426918 536.12584114 -28.19426918 536.12584114 C-28.19426918 536.78584114 -28.19426918 537.44584114 -28.19426918 538.12584114 C-29.56926918 539.75084114 -29.56926918 539.75084114 -31.19426918 541.12584114 C-31.85426918 541.12584114 -32.51426918 541.12584114 -33.19426918 541.12584114 C-33.19426918 541.78584114 -33.19426918 542.44584114 -33.19426918 543.12584114 C-34.56926918 544.75084114 -34.56926918 544.75084114 -36.19426918 546.12584114 C-36.85426918 546.12584114 -37.51426918 546.12584114 -38.19426918 546.12584114 C-38.19426918 546.78584114 -38.19426918 547.44584114 -38.19426918 548.12584114 C-39.56926918 549.75084114 -39.56926918 549.75084114 -41.19426918 551.12584114 C-41.85426918 551.12584114 -42.51426918 551.12584114 -43.19426918 551.12584114 C-43.19426918 551.78584114 -43.19426918 552.44584114 -43.19426918 553.12584114 C-44.56926918 554.75084114 -44.56926918 554.75084114 -46.19426918 556.12584114 C-46.85426918 556.12584114 -47.51426918 556.12584114 -48.19426918 556.12584114 C-48.19426918 556.78584114 -48.19426918 557.44584114 -48.19426918 558.12584114 C-49.56926918 559.75084114 -49.56926918 559.75084114 -51.19426918 561.12584114 C-51.85426918 561.12584114 -52.51426918 561.12584114 -53.19426918 561.12584114 C-53.19426918 561.78584114 -53.19426918 562.44584114 -53.19426918 563.12584114 C-54.38176918 564.81334114 -54.38176918 564.81334114 -56.19426918 566.12584114 C-58.88176918 565.81334114 -58.88176918 565.81334114 -61.19426918 565.12584114 C-61.00864418 565.74459114 -60.82301918 566.36334114 -60.63176918 567.00084114 C-60.19426918 569.12584114 -60.19426918 569.12584114 -61.19426918 571.12584114 C-61.85426918 571.12584114 -62.51426918 571.12584114 -63.19426918 571.12584114 C-63.19426918 571.78584114 -63.19426918 572.44584114 -63.19426918 573.12584114 C-64.80364418 574.27427864 -64.80364418 574.27427864 -66.94426918 575.50084114 C-69.4186183 576.97418387 -71.23830103 578.17120729 -73.25676918 580.25084114 C-75.91220233 582.82061516 -78.76839821 583.80357515 -82.19426918 585.12584114 C-85.44776984 586.22357144 -85.44776984 586.22357144 -88.19426918 588.12584114 C-90.48578335 588.21375089 -92.77999442 588.23278152 -95.07317543 588.22349739 C-95.75983788 588.22208244 -96.44650032 588.2206675 -97.15397072 588.21920967 C-99.35494719 588.21359593 -101.55582327 588.20104121 -103.75676918 588.18834114 C-105.24570001 588.18332791 -106.73463242 588.17876469 -108.22356606 588.17466927 C-111.88049993 588.16362207 -115.53737476 588.14634827 -119.19426918 588.12584114 C-119.68926918 586.64084114 -119.68926918 586.64084114 -120.19426918 585.12584114 C-122.17426918 584.79584114 -124.15426918 584.46584114 -126.19426918 584.12584114 C-126.19426918 583.46584114 -126.19426918 582.80584114 -126.19426918 582.12584114 C-126.90325356 582.03947395 -127.61223793 581.95310677 -128.34270668 581.86412239 C-131.81335862 580.96555634 -133.94655977 579.44611025 -136.81926918 577.31334114 C-137.76028481 576.62627083 -138.70130043 575.93920052 -139.67083168 575.23130989 C-141.96446648 573.31758055 -143.61761675 571.64954318 -145.19426918 569.12584114 C-145.19426918 568.46584114 -145.19426918 567.80584114 -145.19426918 567.12584114 C-145.85426918 567.12584114 -146.51426918 567.12584114 -147.19426918 567.12584114 C-149.80809306 562.54666114 -152.35387739 558.08074212 -154.19426918 553.12584114 C-154.53627357 552.55744514 -154.87827797 551.98904915 -155.23064613 551.40342903 C-156.5241222 548.34621133 -156.43632993 545.81156531 -156.42473793 542.49693489 C-156.42280434 541.21496223 -156.42087074 539.93298958 -156.41887856 538.61216927 C-156.40957314 537.61552254 -156.40957314 537.61552254 -156.40007973 536.59874153 C-156.38179878 534.56663176 -156.37957041 532.53497779 -156.37981606 530.50279427 C-156.33472278 520.54720195 -156.33472278 520.54720195 -155.19426918 517.12584114 C-154.90551918 516.17709114 -154.61676918 515.22834114 -154.31926918 514.25084114 C-152.29238444 508.62060576 -149.01098233 504.62760537 -145.19426918 500.12584114 C-144.53426918 499.13584114 -143.87426918 498.14584114 -143.19426918 497.12584114 C-141.95676918 495.91927864 -141.95676918 495.91927864 -140.69426918 494.68834114 C-138.17191478 492.3724313 -138.17191478 492.3724313 -137.13176918 489.93834114 C-136.19426918 488.12584114 -136.19426918 488.12584114 -134.32317543 487.26255989 C-131.78038143 485.90484787 -130.79933301 484.49854419 -129.19426918 482.12584114 C-127.10334916 479.0349159 -125.55476896 477.6978005 -122.19426918 476.12584114 C-121.5115878 474.80063612 -120.84356508 473.46771933 -120.19426918 472.12584114 C-119.20426918 471.79584114 -118.21426918 471.46584114 -117.19426918 471.12584114 C-116.86426918 470.46584114 -116.53426918 469.80584114 -116.19426918 469.12584114 C-115.19426918 467.12584114 -115.19426918 467.12584114 -112.19426918 466.12584114 C-111.91616402 465.5639962 -111.63805885 465.00215126 -111.35152626 464.42328072 C-109.71779313 461.17991914 -107.23148672 458.89316465 -104.6781559 456.36680794 C-104.11525352 455.80200722 -103.55235115 455.2372065 -102.97239113 454.6552906 C-101.11109604 452.79029308 -99.24269849 450.93259338 -97.37395668 449.07505989 C-96.07282064 447.77511686 -94.77205504 446.47480295 -93.47164345 445.17413521 C-90.74261932 442.44667544 -88.01026948 439.72260704 -85.27532387 437.00108528 C-81.78696923 433.52964425 -78.30515633 430.05173409 -74.82563019 426.57144642 C-72.137163 423.8832527 -69.44608497 421.19768537 -66.75414848 418.51296616 C-65.47068057 417.23265988 -64.18779935 415.95176517 -62.90553856 414.67024994 C-50.79083124 402.57028319 -50.79083124 402.57028319 -44.7279911 397.4406147 C-42.42007408 395.46216721 -40.31372613 393.30258071 -38.19426918 391.12584114 C-33.19426918 386.12584114 -33.19426918 386.12584114 -30.94426918 383.93834114 C-28.61302599 381.55411515 -26.40353832 379.12134771 -24.19426918 376.62584114 C-16.57641934 368.11775843 -8.5312403 359.9451499 0.16901207 352.53990364 C2.50562605 350.52115839 4.65251571 348.33725125 6.80573082 346.12584114 C96.80573082 256.12584114 96.80573082 256.12584114 99.05573082 253.93834114 C101.52038049 251.41767671 103.84769008 248.82981778 106.18073082 246.18834114 C109.32886114 242.65909389 112.53056104 239.54292567 116.18463707 236.55552864 C118.45967888 234.54910622 120.3441244 232.2870538 122.25104332 229.93443489 C124.31323648 227.53545139 126.56302333 225.35759237 128.80573082 223.12584114 C129.81003636 222.11752978 130.81367076 221.10854961 131.81671715 220.09898567 C134.77749986 217.12031969 137.74139736 214.14477417 140.70636559 211.17027473 C141.97647744 209.89513498 143.24569021 208.61909903 144.51398277 207.34214973 C152.8121972 198.98896596 161.19040514 190.98285977 170.36041832 183.58287239 C171.89733636 182.2015759 171.89733636 182.2015759 172.63162804 180.31538582 C174.08046152 177.61350513 175.87048707 175.8067673 178.03668785 173.63609505 C178.91164909 172.75482948 179.78661034 171.87356392 180.68808556 170.96559334 C181.6463184 170.01094268 182.60481097 169.05655266 183.56354332 168.10240364 C184.55072319 167.11387502 185.53760613 166.12504979 186.52420616 165.13594246 C188.59397681 163.06322494 190.66731552 160.99416178 192.74323082 158.92759895 C195.3858773 156.29628692 198.01952215 153.6561782 200.65048981 151.01319504 C202.68878395 148.96761926 204.73188561 146.92689828 206.77639961 144.88754082 C207.74815563 143.91710705 208.71846137 142.94521853 209.68720436 141.97177696 C214.60812671 137.03224999 219.42321855 132.35419496 225.23148155 128.46724129 C227.08779592 126.88549663 227.7616443 125.30422576 228.80573082 123.12584114 C230.13093585 122.44315976 231.46385264 121.77513704 232.80573082 121.12584114 C233.13573082 120.13584114 233.46573082 119.14584114 233.80573082 118.12584114 C234.44510582 117.81646614 235.08448082 117.50709114 235.74323082 117.18834114 C238.29207981 115.87529772 238.58819009 114.64209199 239.80573082 112.12584114 C241.29073082 111.63084114 241.29073082 111.63084114 242.80573082 111.12584114 C242.80573082 110.46584114 242.80573082 109.80584114 242.80573082 109.12584114 C160.96573082 109.12584114 79.12573082 109.12584114 -5.19426918 109.12584114 C-5.19426918 108.79584114 -5.19426918 108.46584114 -5.19426918 108.12584114 C-6.86489418 107.75459114 -6.86489418 107.75459114 -8.56926918 107.37584114 C-13.59885446 106.11619545 -18.54922258 104.44383711 -23.19426918 102.12584114 C-23.52426918 101.46584114 -23.85426918 100.80584114 -24.19426918 100.12584114 C-26.52098783 99.11054573 -28.85461388 98.11095916 -31.19426918 97.12584114 C-31.85426918 96.46584114 -32.51426918 95.80584114 -33.19426918 95.12584114 C-34.36989418 93.98115364 -34.36989418 93.98115364 -35.56926918 92.81334114 C-39.73696877 88.54641061 -42.65824911 84.52866651 -45.19426918 79.12584114 C-45.91163246 77.8400013 -45.91163246 77.8400013 -46.64348793 76.52818489 C-48.56991599 72.30168907 -49.51362084 68.15922662 -50.44426918 63.62584114 C-50.72270668 62.38254036 -50.72270668 62.38254036 -51.00676918 61.11412239 C-52.24430377 55.21708258 -52.11951956 50.90159229 -50.19426918 45.12584114 C-50.00864418 43.23865364 -50.00864418 43.23865364 -49.81926918 41.31334114 C-49.33850458 37.35959046 -48.213695 34.6076098 -46.19426918 31.12584114 C-45.54071449 29.9637513 -45.54071449 29.9637513 -44.87395668 28.77818489 C-40.72202045 21.57207567 -36.18709053 14.85072043 -29.19426918 10.12584114 C-28.20426918 10.12584114 -27.21426918 10.12584114 -26.19426918 10.12584114 C-26.19426918 9.46584114 -26.19426918 8.80584114 -26.19426918 8.12584114 C-19.05141204 3.86759938 -19.05141204 3.86759938 -15.19426918 3.12584114 C-14.86426918 2.79584114 -14.53426918 2.46584114 -14.19426918 2.12584114 C-11.86093585 1.79250781 -9.52760251 1.45917447 -7.19426918 1.12584114 C-5.36420542 -0.70422262 -2.45506735 0.00033763 0 0 Z M321.80573082 186.12584114 C322.80573082 188.12584114 322.80573082 188.12584114 322.80573082 188.12584114 Z " fill="#4251BE" transform="translate(156.19426918029785,691.8741588592529)"/>
<path d="M0 0 C0.99 0 1.98 0 3 0 C5.13020972 -0.03507184 7.26041782 -0.07024275 9.390625 -0.10546875 C11.33771721 -0.12626678 13.28481179 -0.14698154 15.23193359 -0.16479492 C17.22898673 -0.18726358 19.22584375 -0.22538491 21.22265625 -0.26367188 C33.12249501 -0.35409618 33.12249501 -0.35409618 39 3 C40.44246094 3.72509766 40.44246094 3.72509766 41.9140625 4.46484375 C49.20565266 8.42583725 55.07313385 12.24315499 60 19 C60 20.32 60 21.64 60 23 C60.9590625 23.3403125 60.9590625 23.3403125 61.9375 23.6875 C64 25 64 25 64.75 27.625 C64.87375 28.800625 64.87375 28.800625 65 30 C65.66 30 66.32 30 67 30 C67.1546875 31.423125 67.1546875 31.423125 67.3125 32.875 C67.68539295 36.29107501 67.68539295 36.29107501 71 38 C71.38818359 40.90161133 71.38818359 40.90161133 71.3984375 44.58203125 C71.40130768 45.23322433 71.40417786 45.88441742 71.40713501 46.55534363 C71.40917758 47.93477242 71.40363407 49.31423004 71.39111328 50.69360352 C71.37513725 52.79445202 71.3909124 54.89335417 71.41015625 56.99414062 C71.40817233 58.33594172 71.40432558 59.67774161 71.3984375 61.01953125 C71.39505371 62.23745361 71.39166992 63.45537598 71.38818359 64.71020508 C70.96846299 68.26727124 70.01658587 70.0884701 68 73 C67.67 73.825 67.34 74.65 67 75.5 C65.37261965 79.56845087 63.25069304 82.70039124 60.4375 86.0625 C58.50349761 88.39322083 57.16458332 90.24734851 56 93 C55.34 93 54.68 93 54 93 C54 93.66 54 94.32 54 95 C52.625 96.625 52.625 96.625 51 98 C50.34 98 49.68 98 49 98 C49 98.66 49 99.32 49 100 C47.8125 101.6875 47.8125 101.6875 46 103 C43.3125 102.6875 43.3125 102.6875 41 102 C41.185625 102.61875 41.37125 103.2375 41.5625 103.875 C42 106 42 106 41 108 C38.525 107.505 38.525 107.505 36 107 C36.185625 107.61875 36.37125 108.2375 36.5625 108.875 C37 111 37 111 36 113 C35.34 113 34.68 113 34 113 C34 113.66 34 114.32 34 115 C32.8125 116.6875 32.8125 116.6875 31 118 C28.3125 117.6875 28.3125 117.6875 26 117 C26.185625 117.61875 26.37125 118.2375 26.5625 118.875 C27 121 27 121 26 123 C23.525 122.505 23.525 122.505 21 122 C21.185625 122.61875 21.37125 123.2375 21.5625 123.875 C22 126 22 126 21 128 C20.34 128 19.68 128 19 128 C19 128.66 19 129.32 19 130 C17.625 131.625 17.625 131.625 16 133 C15.34 133 14.68 133 14 133 C14 133.66 14 134.32 14 135 C12.8125 136.6875 12.8125 136.6875 11 138 C8.3125 137.6875 8.3125 137.6875 6 137 C6.185625 137.61875 6.37125 138.2375 6.5625 138.875 C7 141 7 141 6 143 C5.34 143 4.68 143 4 143 C4 143.66 4 144.32 4 145 C2.625 146.625 2.625 146.625 1 148 C0.34 148 -0.32 148 -1 148 C-1 148.66 -1 149.32 -1 150 C-2.375 151.625 -2.375 151.625 -4 153 C-4.66 153 -5.32 153 -6 153 C-6 153.66 -6 154.32 -6 155 C-7.375 156.625 -7.375 156.625 -9 158 C-9.66 158 -10.32 158 -11 158 C-11 158.66 -11 159.32 -11 160 C-12.375 161.625 -12.375 161.625 -14 163 C-14.66 163 -15.32 163 -16 163 C-16 163.66 -16 164.32 -16 165 C-17.375 166.625 -17.375 166.625 -19 168 C-19.66 168 -20.32 168 -21 168 C-21 168.66 -21 169.32 -21 170 C-22.375 171.625 -22.375 171.625 -24 173 C-24.66 173 -25.32 173 -26 173 C-26 173.66 -26 174.32 -26 175 C-27.375 176.625 -27.375 176.625 -29 178 C-29.66 178 -30.32 178 -31 178 C-31 178.66 -31 179.32 -31 180 C-32.375 181.625 -32.375 181.625 -34 183 C-34.66 183 -35.32 183 -36 183 C-36 183.66 -36 184.32 -36 185 C-37.375 186.625 -37.375 186.625 -39 188 C-39.66 188 -40.32 188 -41 188 C-41 188.66 -41 189.32 -41 190 C-42.375 191.625 -42.375 191.625 -44 193 C-44.66 193 -45.32 193 -46 193 C-46 193.66 -46 194.32 -46 195 C-47.375 196.625 -47.375 196.625 -49 198 C-49.66 198 -50.32 198 -51 198 C-51 198.66 -51 199.32 -51 200 C-52.375 201.625 -52.375 201.625 -54 203 C-54.66 203 -55.32 203 -56 203 C-56 203.66 -56 204.32 -56 205 C-57.375 206.625 -57.375 206.625 -59 208 C-59.66 208 -60.32 208 -61 208 C-61 208.66 -61 209.32 -61 210 C-62.375 211.625 -62.375 211.625 -64 213 C-64.66 213 -65.32 213 -66 213 C-66 213.66 -66 214.32 -66 215 C-67.375 216.625 -67.375 216.625 -69 218 C-69.66 218 -70.32 218 -71 218 C-71 218.66 -71 219.32 -71 220 C-72.375 221.625 -72.375 221.625 -74 223 C-74.66 223 -75.32 223 -76 223 C-76 223.66 -76 224.32 -76 225 C-77.375 226.625 -77.375 226.625 -79 228 C-79.66 228 -80.32 228 -81 228 C-81 228.66 -81 229.32 -81 230 C-82.375 231.625 -82.375 231.625 -84 233 C-84.66 233 -85.32 233 -86 233 C-86 233.66 -86 234.32 -86 235 C-87.375 236.625 -87.375 236.625 -89 238 C-89.66 238 -90.32 238 -91 238 C-91 238.66 -91 239.32 -91 240 C-92.375 241.625 -92.375 241.625 -94 243 C-94.66 243 -95.32 243 -96 243 C-96 243.66 -96 244.32 -96 245 C-97.375 246.625 -97.375 246.625 -99 248 C-99.66 248 -100.32 248 -101 248 C-101 248.66 -101 249.32 -101 250 C-102.375 251.625 -102.375 251.625 -104 253 C-104.66 253 -105.32 253 -106 253 C-106 253.66 -106 254.32 -106 255 C-107.375 256.625 -107.375 256.625 -109 258 C-109.66 258 -110.32 258 -111 258 C-111 258.66 -111 259.32 -111 260 C-112.375 261.625 -112.375 261.625 -114 263 C-114.66 263 -115.32 263 -116 263 C-116 263.66 -116 264.32 -116 265 C-117.375 266.625 -117.375 266.625 -119 268 C-119.66 268 -120.32 268 -121 268 C-121 268.66 -121 269.32 -121 270 C-122.375 271.625 -122.375 271.625 -124 273 C-124.66 273 -125.32 273 -126 273 C-126 273.66 -126 274.32 -126 275 C-127.375 276.625 -127.375 276.625 -129 278 C-129.66 278 -130.32 278 -131 278 C-131 278.66 -131 279.32 -131 280 C-132.375 281.625 -132.375 281.625 -134 283 C-134.66 283 -135.32 283 -136 283 C-136 283.66 -136 284.32 -136 285 C-137.375 286.625 -137.375 286.625 -139 288 C-139.66 288 -140.32 288 -141 288 C-141 288.66 -141 289.32 -141 290 C-142.375 291.625 -142.375 291.625 -144 293 C-144.66 293 -145.32 293 -146 293 C-146 293.66 -146 294.32 -146 295 C-147.375 296.625 -147.375 296.625 -149 298 C-149.66 298 -150.32 298 -151 298 C-151 298.66 -151 299.32 -151 300 C-152.375 301.625 -152.375 301.625 -154 303 C-154.66 303 -155.32 303 -156 303 C-156 303.66 -156 304.32 -156 305 C-157.375 306.625 -157.375 306.625 -159 308 C-159.66 308 -160.32 308 -161 308 C-161 308.66 -161 309.32 -161 310 C-162.375 311.625 -162.375 311.625 -164 313 C-164.66 313 -165.32 313 -166 313 C-166 313.66 -166 314.32 -166 315 C-167.375 316.625 -167.375 316.625 -169 318 C-169.66 318 -170.32 318 -171 318 C-171 318.66 -171 319.32 -171 320 C-172.375 321.625 -172.375 321.625 -174 323 C-174.66 323 -175.32 323 -176 323 C-176 323.66 -176 324.32 -176 325 C-177.375 326.625 -177.375 326.625 -179 328 C-179.66 328 -180.32 328 -181 328 C-181 328.66 -181 329.32 -181 330 C-182.375 331.625 -182.375 331.625 -184 333 C-184.66 333 -185.32 333 -186 333 C-186 333.66 -186 334.32 -186 335 C-187.375 336.625 -187.375 336.625 -189 338 C-189.66 338 -190.32 338 -191 338 C-191 338.66 -191 339.32 -191 340 C-192.375 341.625 -192.375 341.625 -194 343 C-194.66 343 -195.32 343 -196 343 C-196 343.66 -196 344.32 -196 345 C-197.375 346.625 -197.375 346.625 -199 348 C-199.66 348 -200.32 348 -201 348 C-201 348.66 -201 349.32 -201 350 C-202.375 351.625 -202.375 351.625 -204 353 C-204.66 353 -205.32 353 -206 353 C-206 353.66 -206 354.32 -206 355 C-207.375 356.625 -207.375 356.625 -209 358 C-209.66 358 -210.32 358 -211 358 C-211 358.66 -211 359.32 -211 360 C-212.375 361.625 -212.375 361.625 -214 363 C-214.66 363 -215.32 363 -216 363 C-216 363.66 -216 364.32 -216 365 C-217.375 366.625 -217.375 366.625 -219 368 C-219.66 368 -220.32 368 -221 368 C-221 368.66 -221 369.32 -221 370 C-222.375 371.625 -222.375 371.625 -224 373 C-224.66 373 -225.32 373 -226 373 C-226 373.66 -226 374.32 -226 375 C-227.375 376.625 -227.375 376.625 -229 378 C-229.66 378 -230.32 378 -231 378 C-231 378.66 -231 379.32 -231 380 C-232.375 381.625 -232.375 381.625 -234 383 C-234.66 383 -235.32 383 -236 383 C-236 383.66 -236 384.32 -236 385 C-237.375 386.625 -237.375 386.625 -239 388 C-239.66 388 -240.32 388 -241 388 C-241 388.66 -241 389.32 -241 390 C-242.375 391.625 -242.375 391.625 -244 393 C-244.66 393 -245.32 393 -246 393 C-246 393.66 -246 394.32 -246 395 C-247.375 396.625 -247.375 396.625 -249 398 C-249.66 398 -250.32 398 -251 398 C-251 398.66 -251 399.32 -251 400 C-252.375 401.625 -252.375 401.625 -254 403 C-254.66 403 -255.32 403 -256 403 C-256 403.66 -256 404.32 -256 405 C-257.375 406.625 -257.375 406.625 -259 408 C-259.66 408 -260.32 408 -261 408 C-261 408.66 -261 409.32 -261 410 C-262.375 411.625 -262.375 411.625 -264 413 C-264.66 413 -265.32 413 -266 413 C-266 413.66 -266 414.32 -266 415 C-267.375 416.625 -267.375 416.625 -269 418 C-269.66 418 -270.32 418 -271 418 C-271 418.66 -271 419.32 -271 420 C-272.375 421.625 -272.375 421.625 -274 423 C-274.66 423 -275.32 423 -276 423 C-276 423.66 -276 424.32 -276 425 C-277.375 426.625 -277.375 426.625 -279 428 C-279.66 428 -280.32 428 -281 428 C-281 428.66 -281 429.32 -281 430 C-282.375 431.625 -282.375 431.625 -284 433 C-284.66 433 -285.32 433 -286 433 C-286 433.66 -286 434.32 -286 435 C-287.375 436.625 -287.375 436.625 -289 438 C-289.66 438 -290.32 438 -291 438 C-291 438.66 -291 439.32 -291 440 C-292.375 441.625 -292.375 441.625 -294 443 C-294.66 443 -295.32 443 -296 443 C-296 443.66 -296 444.32 -296 445 C-297.375 446.625 -297.375 446.625 -299 448 C-299.66 448 -300.32 448 -301 448 C-301 448.66 -301 449.32 -301 450 C-302.1875 451.6875 -302.1875 451.6875 -304 453 C-306.6875 452.6875 -306.6875 452.6875 -309 452 C-308.814375 452.61875 -308.62875 453.2375 -308.4375 453.875 C-308 456 -308 456 -309 458 C-310.65 457.67 -312.3 457.34 -314 457 C-313.814375 457.61875 -313.62875 458.2375 -313.4375 458.875 C-313 461 -313 461 -314 463 C-315.65 462.67 -317.3 462.34 -319 462 C-318.814375 462.61875 -318.62875 463.2375 -318.4375 463.875 C-318 466 -318 466 -319 468 C-319.66 468 -320.32 468 -321 468 C-321 468.66 -321 469.32 -321 470 C-322.1875 471.6875 -322.1875 471.6875 -324 473 C-326.6875 472.6875 -326.6875 472.6875 -329 472 C-328.34 473.98 -327.68 475.96 -327 478 C-325.74378814 478.00423194 -324.48757627 478.00846388 -323.19329739 478.01282406 C-293.36977777 478.11351122 -263.54628057 478.21922276 -233.72280109 478.33111694 C-230.05161037 478.34488643 -226.38041949 478.35861354 -222.70922852 478.37231445 C-221.97836407 478.37504276 -221.24749962 478.37777106 -220.49448777 478.38058204 C-208.66224868 478.42465054 -196.83000017 478.46528645 -184.99774461 478.50465261 C-172.85571315 478.54512586 -160.71369916 478.58929069 -148.57169348 478.63687855 C-141.08014692 478.66612375 -133.5886016 478.69249351 -126.09703226 478.71517897 C-120.35137206 478.73288613 -114.60574113 478.75573077 -108.86010742 478.78049088 C-106.50388252 478.78984069 -104.14765033 478.79752337 -101.79141426 478.80341911 C-98.57521612 478.81171546 -95.35909796 478.82600205 -92.14292908 478.84178162 C-90.74359041 478.84324878 -90.74359041 478.84324878 -89.31598228 478.84474558 C-82.43787138 478.88815711 -76.09705462 479.28864874 -69.6875 482 C-68.84574219 482.350625 -68.00398438 482.70125 -67.13671875 483.0625 C-65.74237005 483.67428005 -64.36190547 484.31904726 -63 485 C-63 485.66 -63 486.32 -63 487 C-62.29875 486.855625 -61.5975 486.71125 -60.875 486.5625 C-56.8478851 487.17532183 -55.70409286 489.31434617 -53.33203125 492.46875 C-52.67267578 493.22671875 -52.67267578 493.22671875 -52 494 C-51.34 494 -50.68 494 -50 494 C-48.96210419 495.64333504 -47.96432076 497.31243867 -47 499 C-46.34 499.66 -45.68 500.32 -45 501 C-44.5359375 502.2065625 -44.5359375 502.2065625 -44.0625 503.4375 C-43.22772546 505.99697828 -43.22772546 505.99697828 -41.53125 507.2578125 C-39.33079431 509.76139219 -39.08168868 512.19447013 -38.4375 515.4375 C-37.62985944 519.84564291 -37.62985944 519.84564291 -35.92578125 523.93359375 C-34.51646227 527.07928885 -34.71112917 530.24323812 -34.75 533.625 C-34.74226563 534.305625 -34.73453125 534.98625 -34.7265625 535.6875 C-34.74655878 540.74655878 -34.74655878 540.74655878 -37 543 C-37.46006346 545.20250992 -37.46006346 545.20250992 -37.625 547.625 C-37.69976563 548.44226563 -37.77453125 549.25953125 -37.8515625 550.1015625 C-37.90054687 550.72804688 -37.94953125 551.35453125 -38 552 C-38.66 552 -39.32 552 -40 552 C-40.11988281 552.721875 -40.23976563 553.44375 -40.36328125 554.1875 C-42.07589013 561.75239811 -45.67013944 567.58381821 -52 572 C-52 571.34 -52 570.68 -52 570 C-52.99 570 -53.98 570 -55 570 C-55 570.66 -55 571.32 -55 572 C-55.66 572 -56.32 572 -57 572 C-57 572.99 -57 573.98 -57 575 C-56.34 575.33 -55.68 575.66 -55 576 C-56.66666667 577 -58.33333333 578 -60 579 C-60.7425 579.474375 -61.485 579.94875 -62.25 580.4375 C-63.1575 580.953125 -64.065 581.46875 -65 582 C-65.54869733 582.33352344 -66.09739467 582.66704689 -66.66271919 583.0106771 C-74.1976248 587.01725604 -82.05005998 586.54570073 -90.34376526 586.48101807 C-92.00970517 586.48276389 -93.675644 586.48626899 -95.34157699 586.49137473 C-99.90481726 586.50029647 -104.46768024 586.48434971 -109.03087246 586.46426249 C-113.95714029 586.44696142 -118.88338746 586.45283607 -123.80967712 586.45587158 C-132.33994637 586.45796726 -140.87009307 586.44543525 -149.4003315 586.42292023 C-161.73354861 586.39038871 -174.06670657 586.37999202 -186.39996194 586.37496826 C-206.41063646 586.36621743 -226.42124569 586.33960755 -246.43188477 586.30175781 C-265.86840488 586.26503227 -285.30490726 586.23672315 -304.74145508 586.21972656 C-305.93986279 586.21867567 -307.1382705 586.21762477 -308.3729936 586.21654204 C-314.38515442 586.21132182 -320.39731537 586.206267 -326.4094764 586.20129442 C-376.27302938 586.15983897 -426.1365115 586.08939626 -476 586 C-476 585.34 -476 584.68 -476 584 C-476.86496094 584.05542969 -477.72992187 584.11085938 -478.62109375 584.16796875 C-485.43146775 583.82941837 -491.91388322 579.90471532 -496.875 575.375 C-497.57625 574.59125 -498.2775 573.8075 -499 573 C-500.99408077 571.65783025 -502.99301025 570.3227887 -505 569 C-505.62448004 567.75103993 -506.24717998 566.50118634 -506.8671875 565.25 C-507.73139034 563.53351436 -508.61523752 561.82690463 -509.5078125 560.125 C-510.04148437 559.09375 -510.57515625 558.0625 -511.125 557 C-511.66382813 555.96875 -512.20265625 554.9375 -512.7578125 553.875 C-514 551 -514 551 -514 547 C-514.66 546.67 -515.32 546.34 -516 546 C-517.00352696 541.71381446 -517.12523838 537.56174148 -517.12584114 533.1737318 C-517.12729458 532.5086426 -517.12874802 531.84355339 -517.13024551 531.15830997 C-517.13389198 528.93194806 -517.13042539 526.70565521 -517.12698364 524.47929382 C-517.12813598 522.86615568 -517.12972427 521.25301781 -517.13171089 519.63988048 C-517.13588845 515.20874628 -517.13382061 510.7776336 -517.13072467 506.34649932 C-517.1284645 501.56739841 -517.13195321 496.78830123 -517.13470459 492.00920105 C-517.13915413 482.6489963 -517.13818958 473.28879956 -517.13529195 463.92859449 C-517.1330354 456.32529312 -517.13272649 448.721994 -517.13381577 441.1186924 C-517.133969 440.03740318 -517.13412223 438.95611396 -517.13428011 437.84205839 C-517.13459982 435.64564333 -517.13492404 433.44922826 -517.1352527 431.2528132 C-517.13810493 410.65288446 -517.13482414 390.05296018 -517.12945233 369.45303217 C-517.12498136 351.75929461 -517.12576314 334.06556361 -517.13037109 316.37182617 C-517.13571594 295.83885602 -517.1378336 275.30588975 -517.13475883 254.772919 C-517.13444027 252.58602226 -517.1341259 250.39912552 -517.13381577 248.21222878 C-517.13366149 247.13613641 -517.13350721 246.06004404 -517.13334826 244.95134282 C-517.13248307 237.35047706 -517.13394596 229.74961377 -517.13629532 222.1487484 C-517.13909238 212.89589698 -517.13835693 203.64305405 -517.13301457 194.39020362 C-517.13037677 189.66508653 -517.12937387 184.93998363 -517.13266373 180.21486664 C-517.13562487 175.89677352 -517.13403696 171.57870784 -517.12868617 167.26061723 C-517.12756125 165.69147584 -517.12815482 164.12233217 -517.13056196 162.55319222 C-517.13356506 160.43444847 -517.13052244 158.31580105 -517.12584114 156.19706249 C-517.12567879 155.01596722 -517.12551644 153.83487194 -517.12534916 152.6179859 C-517 150 -517 150 -516 149 C-515.855625 147.906875 -515.71125 146.81375 -515.5625 145.6875 C-515.06987516 142.4580705 -514.5609964 140.75469953 -513 138 C-512.67 137.154375 -512.34 136.30875 -512 135.4375 C-511 133 -511 133 -509 130 C-508.34 130 -507.68 130 -507 130 C-506.89945313 128.92298828 -506.89945313 128.92298828 -506.796875 127.82421875 C-505.75480932 124.13101537 -503.98055327 122.48246407 -501.25 119.8125 C-500.38890625 118.95269531 -499.5278125 118.09289062 -498.640625 117.20703125 C-496.07557802 115.06316802 -494.1244792 114.07547326 -491 113 C-489.79782586 112.36017343 -488.6083704 111.69545898 -487.4375 111 C-483.12167868 108.48897669 -480.20202478 106.81587558 -475.1875 106.5 C-472.07912577 106.30232914 -469.73832995 105.90781358 -466.7734375 104.86328125 C-461.86922104 103.74130212 -458.26489084 104.54606666 -453.4375 105.6875 C-452.2009668 105.94950195 -452.2009668 105.94950195 -450.93945312 106.21679688 C-446.23129825 107.26681703 -442.24569714 108.640614 -438 111 C-437.03578125 111.48339844 -436.0715625 111.96679688 -435.078125 112.46484375 C-434.14484375 112.95082031 -433.2115625 113.43679687 -432.25 113.9375 C-431.30640625 114.42089844 -430.3628125 114.90429688 -429.390625 115.40234375 C-426.80862407 117.12789666 -426.19431049 118.21516227 -425 121 C-423.7934375 121.8971875 -423.7934375 121.8971875 -422.5625 122.8125 C-419.27214393 125.62134055 -418.57941349 128.01386119 -417 132 C-416.34 132.33 -415.68 132.66 -415 133 C-415 134.65 -415 136.3 -415 138 C-414.34 138 -413.68 138 -413 138 C-410.97944157 142.39251833 -409.59104765 146.15340923 -409 151 C-408.67 151 -408.34 151 -408 151 C-407.67 232.84 -407.34 314.68 -407 399 C-406.34 398.67 -405.68 398.34 -405 398 C-404.67 397.01 -404.34 396.02 -404 395 C-402.66666667 394.33333333 -401.33333333 393.66666667 -400 393 C-399.67 392.01 -399.34 391.02 -399 390 C-398.0409375 389.5359375 -398.0409375 389.5359375 -397.0625 389.0625 C-394.86233429 388.18585499 -394.86233429 388.18585499 -394.0625 386.125 C-392.6230819 383.24616379 -390.51793341 382.01434673 -388 380 C-386.92971813 378.81666507 -385.88232742 377.61244279 -384.8515625 376.39453125 C-380.94494144 371.87678148 -376.79572829 367.64786657 -372.5625 363.4375 C-371.85029297 362.72142578 -371.13808594 362.00535156 -370.40429688 361.26757812 C-366.29633461 357.1670781 -362.09158077 353.24104694 -357.68701172 349.46044922 C-353.69051837 346.00067741 -350.20283076 342.12275082 -346.6875 338.1875 C-340.7451497 331.55646671 -334.55797988 325.39991528 -327.8125 319.58984375 C-325.42884357 317.49900718 -323.21135675 315.27112315 -321 313 C-216 208 -216 208 -213.75 205.8125 C-211.4854033 203.4964352 -209.34746452 201.13915798 -207.20703125 198.7109375 C-201.61540703 192.48479873 -195.72398038 186.57326257 -189.79760742 180.66723633 C-187.93356756 178.80857892 -186.07496488 176.94460386 -184.21679688 175.08007812 C-178.81986541 169.68076053 -173.42444224 164.37070993 -167.60913086 159.41772461 C-165.14318463 157.24510289 -162.99341965 154.82980258 -160.8125 152.375 C-155.49010122 146.49268091 -149.9638673 140.81705973 -144.37094116 135.19268799 C-143.41761795 134.23321509 -142.46612842 133.27191666 -141.51651001 132.30877686 C-140.17115677 130.9454895 -138.81813655 129.58978135 -137.46484375 128.234375 C-136.677146 127.44256836 -135.88944824 126.65076172 -135.07788086 125.83496094 C-133 124 -133 124 -130 123 C-129.67 122.34 -129.34 121.68 -129 121 C-128 119 -128 119 -125 118 C-124.67 117.34 -124.34 116.68 -124 116 C-123 114 -123 114 -120 113 C-119.67 112.34 -119.34 111.68 -119 111 C-118 109 -118 109 -115 108 C-114.31261972 106.67722618 -113.64954374 105.34175823 -113 104 C-108.42449956 98.77899327 -103.38549975 94.2593362 -97.62890625 90.38671875 C-95.74074743 88.77929337 -95.05567052 87.21645108 -94 85 C-92.66666667 84.33333333 -91.33333333 83.66666667 -90 83 C-89.74728836 82.44292358 -89.49457672 81.88584717 -89.23420715 81.31188965 C-87.47229957 78.01152317 -84.88662435 75.61705195 -82.25268555 73.00976562 C-81.66545715 72.42063889 -81.07822876 71.83151215 -80.47320557 71.22453308 C-78.53256069 69.28018664 -76.58481287 67.34313057 -74.63671875 65.40625 C-73.28355554 64.05427935 -71.93076229 62.70193834 -70.57832336 61.34924316 C-67.74255455 58.5150383 -64.90345862 55.68422377 -62.06176758 52.85595703 C-58.42511947 49.23627413 -54.79506392 45.61006828 -51.16726971 41.98151398 C-48.373411 39.1879277 -45.5769494 36.39695943 -42.77961159 33.6068573 C-41.44062654 32.27104772 -40.10224039 30.93463755 -38.76447105 29.59761047 C-36.89064307 27.72595933 -35.01355281 25.85764304 -33.13549805 23.99023438 C-32.31158318 23.16563972 -32.31158318 23.16563972 -31.47102356 22.3243866 C-24.17292008 15.08646004 -24.17292008 15.08646004 -20 13 C-17.45787999 11.05996105 -15.13325693 9.14133311 -12.9375 6.8125 C-10.86583015 4.87448627 -9.70496486 4.5596479 -7 4 C-6.67 3.34 -6.34 2.68 -6 2 C-4.02 2 -2.04 2 0 2 C0 1.34 0 0.68 0 0 Z " fill="#4251BE" transform="translate(1209,0)"/>
<path d="M0 0 C0 4.52065792 -1.23027435 7.0991553 -4.16703224 10.53617573 C-5.07223295 11.43861106 -5.97743366 12.34104639 -6.9100647 13.27082825 C-7.66604338 14.03065184 -7.66604338 14.03065184 -8.43729436 14.80582541 C-10.12384168 16.49730471 -11.82086923 18.17785448 -13.51806641 19.85864258 C-14.73081306 21.07054283 -15.94289914 22.28310443 -17.15437317 23.49627686 C-20.44292047 26.78568504 -23.74063672 30.06576022 -27.04006624 33.34424806 C-30.48742225 36.77285292 -33.926287 40.20995279 -37.36605835 43.64616394 C-43.88007723 50.15085779 -50.40170586 56.64786634 -56.92609727 63.1421544 C-64.35392152 70.53644897 -71.7732311 77.93926179 -79.19183469 85.3428055 C-94.45176211 100.57137352 -109.72236058 115.78920248 -125 131 C-125.33 130.34 -125.66 129.68 -126 129 C-126.66 128.67 -127.32 128.34 -128 128 C-127.48050781 127.55269531 -126.96101562 127.10539062 -126.42578125 126.64453125 C-122.47418509 123.21884068 -118.65088448 119.74955704 -115 116 C-10 11 -10 11 -7.5 8.5625 C-4.82356795 5.81915715 -2.41841625 2.97119711 0 0 Z " fill="#283173" transform="translate(1003,197)"/>
<path d="M0 0 C0 4.33430127 -1.14456159 6.98117989 -3.93277168 10.30191517 C-5.12465001 11.48964543 -5.12465001 11.48964543 -6.34060669 12.70137024 C-7.70782364 14.07477318 -7.70782364 14.07477318 -9.10266113 15.47592163 C-10.11533995 16.47798429 -11.12816214 17.47990208 -12.14111328 18.48168945 C-13.20607863 19.54580826 -14.27038317 20.61058874 -15.33407593 21.67597961 C-18.21974856 24.56251256 -21.11457364 27.43970581 -24.01112986 30.31531167 C-27.03808175 33.32350294 -30.05653357 36.34019863 -33.07589722 39.35600281 C-38.79305799 45.06384134 -44.5178227 50.76398975 -50.24535835 56.46141547 C-56.76631104 62.94882982 -63.27874176 69.44477027 -69.79047036 75.94144118 C-83.18418608 89.3038038 -96.58856718 102.65542082 -110 116 C-110.33 115.34 -110.66 114.68 -111 114 C-111.66 113.67 -112.32 113.34 -113 113 C-112.48050781 112.55269531 -111.96101562 112.10539062 -111.42578125 111.64453125 C-107.47418509 108.21884068 -103.65088448 104.74955704 -100 101 C-10 11 -10 11 -7.5 8.5625 C-4.82356795 5.81915715 -2.41841625 2.97119711 0 0 Z " fill="#283173" transform="translate(263,937)"/>
<path d="M0 0 C0.33 0 0.66 0 1 0 C1 128.7 1 257.4 1 390 C0.67 390 0.34 390 0 390 C0 261.3 0 132.6 0 0 Z " fill="#000002" transform="translate(587,738)"/>
<path d="M0 0 C128.7 0 257.4 0 390 0 C390 0.33 390 0.66 390 1 C261.3 1 132.6 1 0 1 C0 0.67 0 0.34 0 0 Z " fill="#000002" transform="translate(738,587)"/>
<path d="M0 0 C0 2.66420516 -0.09162237 4.52260646 -1 7 C-1.99 7.33 -2.98 7.66 -4 8 C-4 8.66 -4 9.32 -4 10 C-4.66 10 -5.32 10 -6 10 C-6 10.66 -6 11.32 -6 12 C-6.99 12.33 -7.98 12.66 -9 13 C-9 13.66 -9 14.32 -9 15 C-9.66 15 -10.32 15 -11 15 C-11 15.66 -11 16.32 -11 17 C-11.99 17.33 -12.98 17.66 -14 18 C-14 18.66 -14 19.32 -14 20 C-14.66 20 -15.32 20 -16 20 C-16 20.66 -16 21.32 -16 22 C-16.99 22.33 -17.98 22.66 -19 23 C-19 23.66 -19 24.32 -19 25 C-19.78375 25.2475 -20.5675 25.495 -21.375 25.75 C-24.41464865 27.19745174 -24.69906137 28.02642598 -26 31 C-26.99 31.66 -27.98 32.32 -29 33 C-30.35251497 34.31387169 -31.68945377 35.64426252 -33 37 C-33 33 -33 33 -31.74719238 31.26617432 C-31.16095093 30.68881531 -30.57470947 30.1114563 -29.97070312 29.51660156 C-29.31001831 28.85621887 -28.6493335 28.19583618 -27.96862793 27.51544189 C-27.24679321 26.81425232 -26.5249585 26.11306274 -25.78125 25.390625 C-24.68254578 24.30041046 -24.68254578 24.30041046 -23.56164551 23.18817139 C-21.21696974 20.8659097 -18.85877808 18.55792787 -16.5 16.25 C-14.90924722 14.67930552 -13.31939162 13.10770185 -11.73046875 11.53515625 C-7.83066686 7.67948856 -3.91967313 3.83545916 0 0 Z " fill="#232C67" transform="translate(78,1122)"/>
<path d="M0 0 C0 4.64749566 -1.28084232 7.17609968 -4.33837891 10.67895508 C-5.2934402 11.63354625 -6.25661917 12.58006528 -7.2265625 13.51953125 C-7.73424164 14.02296555 -8.24192078 14.52639984 -8.76498413 15.04508972 C-10.37804823 16.64144577 -12.00125606 18.22701559 -13.625 19.8125 C-14.72464634 20.89708934 -15.82361245 21.98236882 -16.921875 23.06835938 C-19.60677418 25.72029392 -22.30081688 28.36260846 -25 31 C-25.33 30.34 -25.66 29.68 -26 29 C-26.66 28.67 -27.32 28.34 -28 28 C-27.48050781 27.55269531 -26.96101563 27.10539062 -26.42578125 26.64453125 C-22.47418509 23.21884068 -18.65088448 19.74955704 -15 16 C-10 11 -10 11 -7.5 8.5625 C-4.82356795 5.81915715 -2.41841625 2.97119711 0 0 Z " fill="#283173" transform="translate(133,1067)"/>
<path d="M0 0 C0.66 0.33 1.32 0.66 2 1 C0.4152642 4.86328627 -2.05956887 7.28876923 -5.0078125 10.203125 C-5.49329559 10.6857782 -5.97877869 11.1684314 -6.47897339 11.66571045 C-8.02299866 13.19858562 -9.57384824 14.72434004 -11.125 16.25 C-12.17624009 17.29120361 -13.22702657 18.33286541 -14.27734375 19.375 C-16.84633004 21.92199464 -19.42148161 24.46265177 -22 27 C-22.33 26.34 -22.66 25.68 -23 25 C-23.66 24.67 -24.32 24.34 -25 24 C-24.48050781 23.55269531 -23.96101562 23.10539062 -23.42578125 22.64453125 C-19.47418509 19.21884068 -15.65088448 15.74955704 -12 12 C-8 8 -4 4 0 0 Z " fill="#293275" transform="translate(900,301)"/>
<path d="M0 0 C0 4.98187746 -1.63926266 7.81489318 -5.0390625 11.33203125 C-6.22678414 12.49995753 -7.42234567 13.65995627 -8.625 14.8125 C-9.54152344 15.7087207 -9.54152344 15.7087207 -10.4765625 16.62304688 C-11.97764839 18.08895106 -13.48792862 19.54542993 -15 21 C-15.33 20.34 -15.66 19.68 -16 19 C-16.66 18.67 -17.32 18.34 -18 18 C-17.48050781 17.55269531 -16.96101563 17.10539063 -16.42578125 16.64453125 C-10.44357512 11.45847825 -4.99891416 6.14152311 0 0 Z " fill="#252D6A" transform="translate(288,912)"/>
<path d="M0 0 C0 4.98187746 -1.63926266 7.81489318 -5.0390625 11.33203125 C-6.22678414 12.49995753 -7.42234567 13.65995627 -8.625 14.8125 C-9.54152344 15.7087207 -9.54152344 15.7087207 -10.4765625 16.62304688 C-11.97764839 18.08895106 -13.48792862 19.54542993 -15 21 C-15.33 20.34 -15.66 19.68 -16 19 C-16.66 18.67 -17.32 18.34 -18 18 C-17.48050781 17.55269531 -16.96101562 17.10539062 -16.42578125 16.64453125 C-10.44357512 11.45847825 -4.99891416 6.14152311 0 0 Z " fill="#252D6A" transform="translate(863,337)"/>
<path d="M0 0 C0 4.31656806 -1.1100032 6.97596754 -3.9453125 10.23828125 C-4.66460937 10.92277344 -5.38390625 11.60726563 -6.125 12.3125 C-6.84945312 13.00988281 -7.57390625 13.70726562 -8.3203125 14.42578125 C-8.87460938 14.94527344 -9.42890625 15.46476562 -10 16 C-10.33 15.34 -10.66 14.68 -11 14 C-11.66 13.67 -12.32 13.34 -13 13 C-12.48050781 12.56429688 -11.96101563 12.12859375 -11.42578125 11.6796875 C-7.16777334 8.04345894 -3.44527348 4.41425664 0 0 Z " fill="#232B66" transform="translate(133,1067)"/>
<path d="M0 0 C0 4.31656806 -1.1100032 6.97596754 -3.9453125 10.23828125 C-4.66460937 10.92277344 -5.38390625 11.60726562 -6.125 12.3125 C-6.84945313 13.00988281 -7.57390625 13.70726562 -8.3203125 14.42578125 C-8.87460938 14.94527344 -9.42890625 15.46476563 -10 16 C-10.33 15.34 -10.66 14.68 -11 14 C-11.66 13.67 -12.32 13.34 -13 13 C-12.48050781 12.56429687 -11.96101562 12.12859375 -11.42578125 11.6796875 C-7.16777334 8.04345894 -3.44527348 4.41425664 0 0 Z " fill="#232B66" transform="translate(263,937)"/>
<path d="M0 0 C0 4.31656806 -1.1100032 6.97596754 -3.9453125 10.23828125 C-4.66460938 10.92277344 -5.38390625 11.60726562 -6.125 12.3125 C-6.84945312 13.00988281 -7.57390625 13.70726562 -8.3203125 14.42578125 C-8.87460937 14.94527344 -9.42890625 15.46476563 -10 16 C-10.33 15.34 -10.66 14.68 -11 14 C-11.66 13.67 -12.32 13.34 -13 13 C-12.48050781 12.56429687 -11.96101562 12.12859375 -11.42578125 11.6796875 C-7.16777334 8.04345894 -3.44527348 4.41425664 0 0 Z " fill="#232B66" transform="translate(1003,197)"/>
<path d="M0 0 C0.99 0.33 1.98 0.66 3 1 C-1 5 -5 9 -9 13 C-9 9 -9 9 -7.03125 6.640625 C-5.77828125 5.45726562 -5.77828125 5.45726562 -4.5 4.25 C-3.6646875 3.45078125 -2.829375 2.6515625 -1.96875 1.828125 C-0.99421875 0.92320313 -0.99421875 0.92320313 0 0 Z " fill="#242C69" transform="translate(54,1146)"/>
<path d="M0 0 C-1.40844718 3.21524305 -3.10344786 5.32183868 -5.625 7.75 C-6.57246094 8.67039062 -6.57246094 8.67039062 -7.5390625 9.609375 C-8.02117188 10.06828125 -8.50328125 10.5271875 -9 11 C-9.33 10.34 -9.66 9.68 -10 9 C-10.66 8.67 -11.32 8.34 -12 8 C-10.71064081 6.85157077 -9.41843421 5.70633773 -8.125 4.5625 C-7.04605469 3.60537109 -7.04605469 3.60537109 -5.9453125 2.62890625 C-3.83529848 0.86208728 -2.76919975 0 0 0 Z " fill="#262F6F" transform="translate(887,317)"/>
<path d="M0 0 C0 2.66420516 -0.09162237 4.52260646 -1 7 C-1.99 7.33 -2.98 7.66 -4 8 C-4 8.66 -4 9.32 -4 10 C-5.65 10.33 -7.3 10.66 -9 11 C-7.59155282 7.78475695 -5.89655214 5.67816132 -3.375 3.25 C-2.74335937 2.63640625 -2.11171875 2.0228125 -1.4609375 1.390625 C-0.73777344 0.70226562 -0.73777344 0.70226562 0 0 Z " fill="#212960" transform="translate(1103,97)"/>
<path d="M0 0 C0.99 0.66 1.98 1.32 3 2 C0.69 4.31 -1.62 6.62 -4 9 C-4.33 8.34 -4.66 7.68 -5 7 C-5.66 6.67 -6.32 6.34 -7 6 C-4.69 4.02 -2.38 2.04 0 0 Z " fill="#242D6A" transform="translate(382,819)"/>
<path d="M0 0 C0.66 0 1.32 0 2 0 C1.67 1.32 1.34 2.64 1 4 C0.01 4 -0.98 4 -2 4 C-1.34 2.68 -0.68 1.36 0 0 Z M-5 5 C-4.01 5.33 -3.02 5.66 -2 6 C-3.28965176 7.37562854 -4.62689293 8.70766393 -6 10 C-6.66 10 -7.32 10 -8 10 C-6.125 6.125 -6.125 6.125 -5 5 Z " fill="#262E6E" transform="translate(36,1164)"/>
<path d="M0 0 C0.66 0 1.32 0 2 0 C1.67 1.32 1.34 2.64 1 4 C0.01 4 -0.98 4 -2 4 C-1.34 2.68 -0.68 1.36 0 0 Z M-5 5 C-4.01 5.33 -3.02 5.66 -2 6 C-3.32 7.32 -4.64 8.64 -6 10 C-6 6 -6 6 -5 5 Z " fill="#2B357D" transform="translate(1086,114)"/>
<path d="M0 0 C0.33 0 0.66 0 1 0 C1 1.98 1 3.96 1 6 C0.67 6 0.34 6 0 6 C0 4.02 0 2.04 0 0 Z " fill="#000002" transform="translate(1172,543)"/>
<path d="M0 0 C1.65 0 3.3 0 5 0 C5 0.33 5 0.66 5 1 C3.35 1 1.7 1 0 1 C0 0.67 0 0.34 0 0 Z " fill="#000002" transform="translate(544,1172)"/>
<path d="M0 0 C1 4 1 4 1 4 Z " fill="#000002" transform="translate(1172,518)"/>
<path d="M0 0 C3 1 3 1 3 1 Z " fill="#000002" transform="translate(33,1277)"/>
<path d="M0 0 C3 1 3 1 3 1 Z " fill="#000002" transform="translate(518,1172)"/>
<path d="" fill="#000002" transform="translate(0,0)"/>
<path d="M0 0 C2 1 2 1 2 1 Z " fill="#000002" transform="translate(72,1277)"/>
<path d="M0 0 C2 1 2 1 2 1 Z " fill="#000002" transform="translate(558,1167)"/>
<path d="M0 0 C2 1 2 1 2 1 Z " fill="#000002" transform="translate(140,797)"/>
<path d="M0 0 C2 1 2 1 2 1 Z " fill="#000002" transform="translate(130,792)"/>
<path d="M0 0 C2 1 2 1 2 1 Z " fill="#000002" transform="translate(729,584)"/>
<path d="" fill="#000002" transform="translate(0,0)"/>
<path d="" fill="#000002" transform="translate(0,0)"/>
<path d="" fill="#000002" transform="translate(0,0)"/>
<path d="" fill="#000002" transform="translate(0,0)"/>
<path d="" fill="#000002" transform="translate(0,0)"/>
<path d="" fill="#4352BF" transform="translate(0,0)"/>
<path d="" fill="#000002" transform="translate(0,0)"/>
<path d="" fill="#4352BF" transform="translate(0,0)"/>
<path d="" fill="#4352BF" transform="translate(0,0)"/>
<path d="" fill="#4352BF" transform="translate(0,0)"/>
<path d="" fill="#000002" transform="translate(0,0)"/>
<path d="" fill="#4352BF" transform="translate(0,0)"/>
<path d="" fill="#4352BF" transform="translate(0,0)"/>
<path d="" fill="#000002" transform="translate(0,0)"/>
<path d="" fill="#4352BF" transform="translate(0,0)"/>
<path d="" fill="#000002" transform="translate(0,0)"/>
<path d="" fill="#000002" transform="translate(0,0)"/>
<path d="" fill="#000002" transform="translate(0,0)"/>
<path d="" fill="#4352BF" transform="translate(0,0)"/>
<path d="" fill="#000002" transform="translate(0,0)"/>
<path d="" fill="#4352BF" transform="translate(0,0)"/>
<path d="" fill="#000002" transform="translate(0,0)"/>
<path d="" fill="#4352BF" transform="translate(0,0)"/>
<path d="" fill="#000002" transform="translate(0,0)"/>
<path d="" fill="#4352BF" transform="translate(0,0)"/>
<path d="" fill="#4352BF" transform="translate(0,0)"/>
<path d="" fill="#4352BF" transform="translate(0,0)"/>
<path d="" fill="#000002" transform="translate(0,0)"/>
<path d="" fill="#4352BF" transform="translate(0,0)"/>
<path d="" fill="#4352BF" transform="translate(0,0)"/>
<path d="" fill="#000002" transform="translate(0,0)"/>
<path d="" fill="#000002" transform="translate(0,0)"/>
<path d="" fill="#000002" transform="translate(0,0)"/>
<path d="" fill="#4352BF" transform="translate(0,0)"/>
<path d="" fill="#000002" transform="translate(0,0)"/>
<path d="" fill="#4352BF" transform="translate(0,0)"/>
<path d="" fill="#000002" transform="translate(0,0)"/>
<path d="" fill="#000002" transform="translate(0,0)"/>
<path d="" fill="#4352BF" transform="translate(0,0)"/>
<path d="" fill="#4352BF" transform="translate(0,0)"/>
<path d="" fill="#4352BF" transform="translate(0,0)"/>
<path d="" fill="#4352BF" transform="translate(0,0)"/>
<path d="" fill="#000002" transform="translate(0,0)"/>
<path d="" fill="#000002" transform="translate(0,0)"/>
<path d="" fill="#000002" transform="translate(0,0)"/>
<path d="" fill="#000002" transform="translate(0,0)"/>
<path d="" fill="#4352BF" transform="translate(0,0)"/>
<path d="" fill="#000002" transform="translate(0,0)"/>
<path d="" fill="#000002" transform="translate(0,0)"/>
<path d="" fill="#000002" transform="translate(0,0)"/>
<path d="" fill="#000002" transform="translate(0,0)"/>
<path d="" fill="#4352BF" transform="translate(0,0)"/>
<path d="" fill="#4352BF" transform="translate(0,0)"/>
<path d="" fill="#000002" transform="translate(0,0)"/>
<path d="" fill="#4352BF" transform="translate(0,0)"/>
<path d="" fill="#4352BF" transform="translate(0,0)"/>
<path d="" fill="#000002" transform="translate(0,0)"/>
<path d="" fill="#000002" transform="translate(0,0)"/>
<path d="" fill="#000002" transform="translate(0,0)"/>
<path d="" fill="#000002" transform="translate(0,0)"/>
<path d="" fill="#4352BF" transform="translate(0,0)"/>
<path d="" fill="#4352BF" transform="translate(0,0)"/>
<path d="" fill="#000002" transform="translate(0,0)"/>
<path d="" fill="#4352BF" transform="translate(0,0)"/>
<path d="" fill="#000002" transform="translate(0,0)"/>
<path d="" fill="#4352BF" transform="translate(0,0)"/>
<path d="" fill="#000002" transform="translate(0,0)"/>
<path d="" fill="#4352BF" transform="translate(0,0)"/>
<path d="" fill="#000002" transform="translate(0,0)"/>
<path d="" fill="#4352BF" transform="translate(0,0)"/>
<path d="" fill="#4352BF" transform="translate(0,0)"/>
<path d="" fill="#4352BF" transform="translate(0,0)"/>
<path d="" fill="#4352BF" transform="translate(0,0)"/>
<path d="" fill="#000002" transform="translate(0,0)"/>
<path d="" fill="#000002" transform="translate(0,0)"/>
<path d="" fill="#4352BF" transform="translate(0,0)"/>
<path d="" fill="#000002" transform="translate(0,0)"/>
<path d="" fill="#000002" transform="translate(0,0)"/>
<path d="" fill="#4352BF" transform="translate(0,0)"/>
<path d="" fill="#000002" transform="translate(0,0)"/>
<path d="" fill="#4352BF" transform="translate(0,0)"/>
<path d="" fill="#4352BF" transform="translate(0,0)"/>
<path d="" fill="#4352BF" transform="translate(0,0)"/>
<path d="" fill="#4352BF" transform="translate(0,0)"/>
<path d="" fill="#000002" transform="translate(0,0)"/>
<path d="" fill="#4352BF" transform="translate(0,0)"/>
<path d="" fill="#4352BF" transform="translate(0,0)"/>
<path d="" fill="#000002" transform="translate(0,0)"/>
<path d="" fill="#000002" transform="translate(0,0)"/>
<path d="" fill="#000002" transform="translate(0,0)"/>
<path d="" fill="#4352BF" transform="translate(0,0)"/>
<path d="" fill="#000002" transform="translate(0,0)"/>
<path d="" fill="#000002" transform="translate(0,0)"/>
<path d="" fill="#4352BF" transform="translate(0,0)"/>
</svg>
